<svg width="32" height="32" viewBox="0 0 32 32" fill="none" xmlns="http://www.w3.org/2000/svg">
<path d="M13.0138 0.744034C14.8566 -0.24801 17.1434 -0.248012 18.9862 0.744033L29.0011 6.13532C30.7809 7.09342 31.8806 8.8343 31.8986 10.722L31.9998 21.3445C32.0184 23.2991 30.875 25.109 29.0136 26.0716L18.8975 31.3028C17.0997 32.2324 14.9003 32.2324 13.1025 31.3028L2.98642 26.0716C1.12497 25.109 -0.0183905 23.2991 0.000223877 21.3445L0.101384 10.722C0.119362 8.8343 1.2191 7.09342 2.99888 6.13532L13.0138 0.744034Z" fill="url(#paint0_linear_1_3415)"/>
<path d="M15.8364 18.772C15.7058 18.772 15.5805 18.7246 15.4881 18.6401C15.3957 18.5557 15.3438 18.4412 15.3438 18.3217V8.74961C15.3438 8.63018 15.3957 8.51565 15.4881 8.4312C15.5805 8.34676 15.7058 8.29932 15.8364 8.29932C15.9671 8.29932 16.0924 8.34676 16.1848 8.4312C16.2772 8.51565 16.3291 8.63018 16.3291 8.74961V18.3217C16.3291 18.4412 16.2772 18.5557 16.1848 18.6401C16.0924 18.7246 15.9671 18.772 15.8364 18.772Z" fill="white"/>
<path d="M15.8374 11.0355C15.8021 11.0354 15.7669 11.032 15.7325 11.0251C15.0181 10.8833 13.8184 10.5359 13.8184 9.80277C13.8185 9.68931 13.8655 9.58007 13.95 9.49692C14.0345 9.41378 14.1502 9.36284 14.274 9.3543C14.3978 9.34577 14.5206 9.38026 14.6177 9.45089C14.7149 9.52152 14.7793 9.62307 14.7981 9.73523C15.1466 9.93851 15.5349 10.078 15.9416 10.1459C16.0605 10.1693 16.1657 10.2322 16.237 10.3223C16.3083 10.4124 16.3405 10.5234 16.3276 10.6339C16.3147 10.7445 16.2574 10.8468 16.1669 10.9211C16.0764 10.9953 15.9591 11.0364 15.8374 11.0364V11.0355Z" fill="white"/>
<path d="M15.8358 11.0356C15.7144 11.0355 15.5972 10.9943 15.5069 10.9201C15.4166 10.8458 15.3595 10.7437 15.3466 10.6333C15.3336 10.523 15.3657 10.4121 15.4368 10.322C15.5078 10.232 15.6127 10.1691 15.7314 10.1454C16.138 10.0768 16.5265 9.9373 16.8754 9.7345C16.8942 9.62234 16.9586 9.52078 17.0558 9.45016C17.1529 9.37953 17.2757 9.34504 17.3995 9.35357C17.5233 9.36211 17.639 9.41304 17.7235 9.49619C17.808 9.57934 17.855 9.68857 17.8551 9.80204C17.8551 10.5351 16.6557 10.8827 15.941 11.0244C15.9065 11.0315 15.8712 11.0353 15.8358 11.0356Z" fill="white"/>
<path d="M14.6708 12.2417H14.6449C12.4771 12.1388 11.7006 11.5992 11.4313 11.1646C11.3456 11.0339 11.2981 10.8852 11.2934 10.7329C11.2886 10.5805 11.3268 10.4296 11.4042 10.2947C11.4655 10.1909 11.5688 10.1132 11.6921 10.0783C11.8153 10.0434 11.9486 10.0541 12.0633 10.108C12.1781 10.162 12.2651 10.2549 12.3056 10.3668C12.3462 10.4788 12.3371 10.6008 12.2803 10.7067C12.3226 10.8258 12.837 11.2542 14.6959 11.3425C14.7606 11.344 14.8244 11.3571 14.8835 11.3811C14.9427 11.4051 14.9961 11.4395 15.0407 11.4823C15.0853 11.5252 15.1202 11.5757 15.1435 11.6309C15.1668 11.6861 15.1779 11.7449 15.1763 11.804C15.1747 11.8632 15.1603 11.9214 15.1341 11.9755C15.1078 12.0296 15.0702 12.0784 15.0233 12.1192C14.9764 12.1599 14.9212 12.1918 14.8608 12.2131C14.8004 12.2344 14.736 12.2446 14.6713 12.2431L14.6708 12.2417Z" fill="white"/>
<path d="M14.0616 17.3928C11.0473 17.3928 9.10485 16.5597 8.4912 15.6864C8.38141 15.5558 8.31289 15.4002 8.29308 15.2366C8.27328 15.0729 8.30295 14.9074 8.37886 14.7581C8.43593 14.6545 8.53454 14.575 8.65415 14.5362C8.77376 14.4974 8.90514 14.5023 9.0209 14.5498C9.13667 14.5974 9.2279 14.6839 9.27557 14.7914C9.32324 14.8989 9.32368 15.0191 9.2768 15.1269C9.38199 15.5211 11.103 16.6129 14.6501 16.4811C14.7148 16.4788 14.7794 16.4881 14.8402 16.5085C14.9009 16.5289 14.9567 16.5601 15.0043 16.6002C15.0519 16.6403 15.0904 16.6886 15.1175 16.7424C15.1447 16.7961 15.16 16.8542 15.1626 16.9133C15.1652 16.9724 15.1551 17.0315 15.1327 17.087C15.1104 17.1426 15.0763 17.1935 15.0323 17.237C14.9884 17.2805 14.9356 17.3157 14.8768 17.3405C14.818 17.3653 14.7545 17.3793 14.6898 17.3817C14.4758 17.3892 14.2664 17.3929 14.0616 17.3928Z" fill="white"/>
<path d="M14.5264 15.5527C12.0679 15.5527 10.6327 15.1891 10.1388 14.4416C10.0241 14.2647 9.96275 14.0631 9.96098 13.8575C9.9592 13.6518 10.0171 13.4494 10.1287 13.2709C10.1913 13.1678 10.2956 13.0914 10.4193 13.0579C10.5429 13.0244 10.676 13.0365 10.79 13.0917C10.9039 13.1469 10.9897 13.2407 11.0288 13.353C11.0679 13.4653 11.0573 13.5871 10.9993 13.6923C10.9663 13.7329 10.9472 13.7814 10.9441 13.8319C10.9411 13.8823 10.9544 13.9324 10.9823 13.976C11.0576 14.0906 11.5838 14.6611 14.605 14.6515H14.6068C14.7374 14.6513 14.8628 14.6985 14.9554 14.7828C15.048 14.8671 15.1001 14.9815 15.1003 15.101C15.1005 15.2204 15.0488 15.335 14.9566 15.4196C14.8644 15.5042 14.7391 15.5518 14.6085 15.5521L14.5264 15.5527Z" fill="white"/>
<path d="M12.185 19.2115C11.0082 19.2115 10.0708 18.8596 9.72151 18.1941C9.69241 18.1406 9.67523 18.0824 9.67097 18.0229C9.66671 17.9633 9.67545 17.9036 9.69669 17.8471C9.71793 17.7906 9.75124 17.7386 9.79469 17.694C9.83813 17.6494 9.89084 17.6132 9.94975 17.5874C10.0087 17.5616 10.0726 17.5468 10.1378 17.5438C10.2031 17.5408 10.2683 17.5497 10.3298 17.5699C10.3912 17.5902 10.4476 17.6214 10.4958 17.6618C10.5439 17.7021 10.5827 17.7508 10.6101 17.805C10.8759 18.3112 12.4301 18.5946 14.3592 17.9052C14.4809 17.8617 14.6166 17.8642 14.7363 17.9121C14.856 17.96 14.95 18.0494 14.9976 18.1607C15.0452 18.2719 15.0425 18.3959 14.9901 18.5053C14.9377 18.6147 14.8399 18.7006 14.7182 18.7441C13.9123 19.0408 13.0536 19.1992 12.185 19.2115Z" fill="white"/>
<path d="M11.894 21.0501C11.3966 21.0538 10.902 20.9821 10.4302 20.8378C9.82979 20.6836 9.31869 20.3216 9.00537 19.8287C8.97742 19.7754 8.96124 19.7175 8.95775 19.6585C8.95426 19.5994 8.96353 19.5403 8.98503 19.4845C9.02846 19.3719 9.11907 19.2796 9.23694 19.228C9.2953 19.2025 9.35859 19.1877 9.42321 19.1845C9.48782 19.1813 9.55249 19.1898 9.61352 19.2094C9.73678 19.2491 9.83774 19.3319 9.89419 19.4397C10.0962 19.712 10.4011 19.9066 10.7505 19.9861C11.2294 20.1363 12.5363 20.3983 14.3191 19.5862C14.377 19.5598 14.44 19.5441 14.5046 19.54C14.5691 19.5359 14.6339 19.5434 14.6953 19.5622C14.7566 19.5809 14.8134 19.6106 14.8622 19.6494C14.911 19.6882 14.951 19.7354 14.9799 19.7883C15.0088 19.8412 15.0259 19.8988 15.0305 19.9578C15.035 20.0168 15.0267 20.076 15.0062 20.1321C14.9857 20.1882 14.9533 20.24 14.9108 20.2847C14.8684 20.3293 14.8167 20.3659 14.7588 20.3923C13.8718 20.8096 12.8915 21.0347 11.894 21.0501Z" fill="white"/>
<path d="M10.8311 23.8063C10.4709 23.8129 10.1151 23.7326 9.79969 23.5735C9.02 23.166 8.69261 22.3032 8.90151 21.2061C8.91137 21.1468 8.93408 21.0899 8.9683 21.0388C9.00251 20.9877 9.04756 20.9433 9.10078 20.9083C9.15401 20.8733 9.21435 20.8483 9.27826 20.8349C9.34218 20.8215 9.40838 20.8199 9.47299 20.8301C9.5376 20.8404 9.59932 20.8624 9.65453 20.8947C9.70973 20.9271 9.75732 20.9692 9.79449 21.0185C9.83166 21.0679 9.85768 21.1236 9.87101 21.1823C9.88434 21.2409 9.88471 21.3015 9.87211 21.3603C9.73859 22.0618 9.89059 22.5835 10.2887 22.7915C10.8449 23.0824 12.1117 22.8726 13.993 21.4112C14.0928 21.3353 14.2213 21.2984 14.3506 21.3086C14.4799 21.3188 14.5997 21.3752 14.6837 21.4656C14.7678 21.556 14.8094 21.6731 14.7995 21.7914C14.7897 21.9097 14.7291 22.0197 14.631 22.0974C12.9032 23.4391 11.6667 23.8063 10.8311 23.8063Z" fill="white"/>
<path d="M16.9895 12.2415C16.8589 12.2445 16.7323 12.1999 16.6375 12.1175C16.5428 12.0352 16.4878 11.9219 16.4845 11.8024C16.4813 11.683 16.53 11.5673 16.6201 11.4807C16.7102 11.3942 16.8342 11.3439 16.9649 11.3409C18.8699 11.2508 19.3631 10.8028 19.3833 10.697C19.3531 10.6453 19.3345 10.5887 19.3285 10.5305C19.3226 10.4722 19.3294 10.4134 19.3485 10.3576C19.3677 10.3017 19.3989 10.2499 19.4402 10.2052C19.4815 10.1605 19.5322 10.1238 19.5892 10.0972C19.7063 10.0429 19.8422 10.033 19.9672 10.0696C20.0923 10.1063 20.1964 10.1866 20.2571 10.2931C20.3345 10.428 20.3726 10.5789 20.3679 10.7313C20.3631 10.8836 20.3156 11.0323 20.23 11.163C19.9605 11.5976 19.1842 12.1372 17.0159 12.2401C17.007 12.241 16.9982 12.2415 16.9895 12.2415Z" fill="white"/>
<path d="M17.5978 17.3925C17.393 17.3925 17.1835 17.3886 16.9694 17.3808C16.8387 17.3759 16.7155 17.3239 16.6268 17.236C16.5381 17.1482 16.4912 17.0318 16.4965 16.9123C16.5018 16.7929 16.5587 16.6803 16.6548 16.5992C16.7509 16.5182 16.8783 16.4754 17.009 16.4802C20.5576 16.6112 22.2774 15.5201 22.3826 15.1259C22.3357 15.0181 22.3361 14.8979 22.3838 14.7904C22.4315 14.6829 22.5227 14.5964 22.6385 14.5488C22.7542 14.5013 22.8856 14.4964 23.0052 14.5352C23.1248 14.574 23.2234 14.6535 23.2805 14.7571C23.3564 14.9064 23.3861 15.0719 23.3663 15.2356C23.3465 15.3993 23.278 15.5548 23.1682 15.6854C22.5545 16.5599 20.6113 17.3925 17.5978 17.3925Z" fill="white"/>
<path d="M17.1343 15.5529H17.0523C16.9876 15.5528 16.9235 15.5411 16.8638 15.5183C16.8041 15.4956 16.7498 15.4623 16.7042 15.4204C16.6119 15.3358 16.5603 15.2212 16.5605 15.1017C16.5608 14.9823 16.613 14.8679 16.7056 14.7836C16.7981 14.6993 16.9236 14.6521 17.0542 14.6523H17.1321C20.0816 14.6523 20.6036 14.0895 20.6795 13.9769C20.7072 13.9333 20.7204 13.8831 20.7173 13.8327C20.7143 13.7823 20.6952 13.7338 20.6625 13.6932C20.6312 13.6409 20.6116 13.5835 20.6049 13.5242C20.5981 13.465 20.6042 13.4051 20.623 13.348C20.6417 13.2909 20.6726 13.2378 20.714 13.1917C20.7554 13.1457 20.8063 13.1076 20.8639 13.0796C20.9215 13.0517 20.9846 13.0345 21.0495 13.029C21.1144 13.0235 21.1799 13.0299 21.2421 13.0477C21.3043 13.0655 21.3621 13.0944 21.412 13.1327C21.4619 13.1711 21.5029 13.2181 21.5328 13.2711C21.6444 13.4496 21.7023 13.6521 21.7005 13.8577C21.6987 14.0633 21.6374 14.2649 21.5227 14.4418C21.0283 15.1891 19.5926 15.5529 17.1343 15.5529Z" fill="white"/>
<path d="M14.5992 13.6982C12.2589 13.6982 10.8899 13.3497 10.4167 12.6335C10.3055 12.4623 10.246 12.2671 10.2442 12.068C10.2424 11.8689 10.2984 11.6729 10.4066 11.5001C10.4687 11.3961 10.5732 11.3187 10.6974 11.2846C10.8216 11.2506 10.9554 11.2626 11.07 11.3182C11.1845 11.3737 11.2704 11.4683 11.3092 11.5814C11.3479 11.6944 11.3363 11.8169 11.2769 11.9222C11.1932 12.0666 11.2402 12.1377 11.2602 12.1679C11.3301 12.2739 11.8184 12.7983 14.6004 12.7983C14.625 12.7983 14.6509 12.7996 14.6743 12.7983C14.805 12.798 14.9304 12.8453 15.023 12.9295C15.1156 13.0138 15.1677 13.1283 15.168 13.2477C15.1682 13.3671 15.1166 13.4817 15.0244 13.5663C14.9321 13.651 14.8069 13.6986 14.6763 13.6989L14.5992 13.6982Z" fill="white"/>
<path d="M17.0705 13.6981H16.9929C16.9282 13.6979 16.8642 13.6861 16.8045 13.6632C16.7448 13.6404 16.6906 13.6071 16.645 13.5651C16.5995 13.5232 16.5634 13.4734 16.5388 13.4187C16.5142 13.364 16.5017 13.3054 16.502 13.2463C16.5041 13.1273 16.557 13.0137 16.6494 12.9299C16.7418 12.8461 16.8664 12.7986 16.9966 12.7975C19.8422 12.816 20.339 12.2747 20.4095 12.1671C20.4295 12.137 20.4765 12.0658 20.3928 11.9215C20.3615 11.8692 20.3419 11.8118 20.3351 11.7525C20.3284 11.6932 20.3345 11.6333 20.3533 11.5763C20.372 11.5192 20.4029 11.4661 20.4443 11.42C20.4857 11.3739 20.5366 11.3358 20.5942 11.3079C20.6518 11.28 20.7149 11.2628 20.7798 11.2573C20.8447 11.2518 20.9102 11.2581 20.9724 11.2759C21.0346 11.2938 21.0923 11.3227 21.1422 11.361C21.1921 11.3994 21.2332 11.4464 21.2631 11.4993C21.3712 11.6722 21.4273 11.8682 21.4255 12.0673C21.4237 12.2664 21.3642 12.4615 21.253 12.6327C20.7798 13.3496 19.4111 13.6981 17.0705 13.6981Z" fill="white"/>
<path d="M19.4757 19.2114C18.6069 19.1992 17.7481 19.0408 16.9422 18.744C16.882 18.7225 16.8269 18.6903 16.7803 18.6493C16.7336 18.6084 16.6962 18.5594 16.6703 18.5052C16.6443 18.451 16.6303 18.3927 16.629 18.3336C16.6277 18.2744 16.6392 18.2157 16.6627 18.1606C16.6863 18.1055 16.7215 18.0552 16.7664 18.0125C16.8112 17.9699 16.8648 17.9357 16.9241 17.912C16.9833 17.8883 17.0472 17.8755 17.1119 17.8743C17.1766 17.8731 17.2409 17.8836 17.3012 17.9051C19.2296 18.5945 20.7845 18.3104 21.0501 17.805C21.0781 17.7516 21.1173 17.7039 21.1656 17.6644C21.2138 17.625 21.27 17.5946 21.3311 17.575C21.3922 17.5554 21.4569 17.547 21.5215 17.5502C21.5862 17.5535 21.6495 17.5684 21.7078 17.594C21.7661 17.6196 21.8184 17.6555 21.8616 17.6996C21.9047 17.7436 21.938 17.7951 21.9594 17.8509C21.9809 17.9067 21.9901 17.9658 21.9865 18.0249C21.9829 18.084 21.9667 18.1418 21.9386 18.1951C21.5903 18.8595 20.6525 19.2114 19.4757 19.2114Z" fill="white"/>
<path d="M19.767 21.0503C18.7694 21.0349 17.7889 20.8098 16.9018 20.3924C16.7848 20.3391 16.6958 20.2455 16.6544 20.1323C16.6129 20.019 16.6224 19.8953 16.6807 19.7884C16.739 19.6816 16.8414 19.6002 16.9653 19.5623C17.0892 19.5244 17.2246 19.5331 17.3415 19.5864C19.1241 20.3987 20.4304 20.1364 20.9101 19.9862C21.2593 19.9065 21.5641 19.712 21.7661 19.4398C21.7935 19.3856 21.8323 19.3369 21.8805 19.2965C21.9286 19.2561 21.985 19.2249 22.0465 19.2047C22.1079 19.1844 22.1731 19.1755 22.2384 19.1785C22.3036 19.1816 22.3676 19.1964 22.4265 19.2222C22.4854 19.248 22.5381 19.2842 22.5815 19.3288C22.625 19.3734 22.6583 19.4254 22.6795 19.4819C22.7008 19.5383 22.7095 19.5981 22.7052 19.6576C22.701 19.7172 22.6838 19.7754 22.6547 19.8289C22.3414 20.3218 21.8303 20.6837 21.2298 20.838C20.7584 20.982 20.2641 21.0538 19.767 21.0503Z" fill="white"/>
<path d="M20.831 23.8062C19.9954 23.8062 18.7593 23.439 17.0311 22.0973C16.9803 22.0595 16.9383 22.0127 16.9074 21.9599C16.8766 21.907 16.8577 21.849 16.8517 21.7893C16.8457 21.7297 16.8528 21.6695 16.8725 21.6124C16.8923 21.5553 16.9244 21.5023 16.9668 21.4567C17.0092 21.411 17.0612 21.3735 17.1197 21.3465C17.1782 21.3194 17.242 21.3033 17.3074 21.299C17.3728 21.2948 17.4384 21.3025 17.5005 21.3217C17.5626 21.341 17.6198 21.3713 17.6689 21.4111C19.551 22.8723 20.8162 23.0821 21.3732 22.7914C21.7713 22.5834 21.9231 22.0617 21.7896 21.3602C21.7785 21.3019 21.7801 21.2422 21.7942 21.1845C21.8084 21.1268 21.8348 21.0722 21.8721 21.0239C21.9473 20.9262 22.0619 20.8599 22.1906 20.8394C22.3194 20.819 22.4517 20.8461 22.5586 20.9148C22.6654 20.9836 22.738 21.0883 22.7604 21.206C22.9693 22.3029 22.6419 23.1647 21.8625 23.5731C21.5471 23.7325 21.1913 23.8129 20.831 23.8062Z" fill="white"/>
<path d="M16.0387 19.2559H15.6635C15.4125 19.2559 15.209 19.4418 15.209 19.6713V19.7021C15.209 19.9315 15.4125 20.1175 15.6635 20.1175H16.0387C16.2897 20.1175 16.4932 19.9315 16.4932 19.7021V19.6713C16.4932 19.4418 16.2897 19.2559 16.0387 19.2559Z" fill="white"/>
<path d="M16.0172 20.7578H15.642C15.391 20.7578 15.1875 20.9438 15.1875 21.1732V21.2041C15.1875 21.4335 15.391 21.6194 15.642 21.6194H16.0172C16.2682 21.6194 16.4717 21.4335 16.4717 21.2041V21.1732C16.4717 20.9438 16.2682 20.7578 16.0172 20.7578Z" fill="white"/>
<path d="M15.9957 22.2578H15.6205C15.3695 22.2578 15.166 22.4438 15.166 22.6732V22.7041C15.166 22.9335 15.3695 23.1194 15.6205 23.1194H15.9957C16.2467 23.1194 16.4502 22.9335 16.4502 22.7041V22.6732C16.4502 22.4438 16.2467 22.2578 15.9957 22.2578Z" fill="white"/>
<defs>
<linearGradient id="paint0_linear_1_3415" x1="27.4662" y1="5.57389" x2="6.13045" y2="29.1681" gradientUnits="userSpaceOnUse">
<stop offset="0.012" stop-color="#3F51B1"/>
<stop offset="0.177083" stop-color="#5A55AE"/>
<stop offset="0.348958" stop-color="#7B5FAC"/>
<stop offset="0.520833" stop-color="#8F6AAE"/>
<stop offset="0.692708" stop-color="#A86AA4"/>
<stop offset="0.848958" stop-color="#CC6B8E"/>
<stop offset="1" stop-color="#F7C978"/>
</linearGradient>
</defs>
</svg>
